<svg xmlns="http://www.w3.org/2000/svg" viewBox="0 0 951.3 245.23"><defs><style>.cls-1,.cls-2{fill:#0f3fa9;}.cls-2{font-size:98.59px;font-family:Antonio-Bold, Antonio;font-weight:700;}</style></defs><g id="Capa_2" data-name="Capa 2"><g id="Capa_1-2" data-name="Capa 1"><path class="cls-1" d="M71.33,41.43C71.24,58,66.26,68.55,56.41,73.38c12,2.65,18,14.09,17.84,34.51,0,1.31,0,2.62,0,3.92-.21,15.42-3.22,27-9,35S50,160.2,37,163.05q-18.53,4-37,8.42V2l36.68-.09c12.64,0,21.58,2.7,26.82,8s7.85,14.2,7.85,26.74C71.34,38.27,71.33,39.85,71.33,41.43ZM25.67,68.15l9.48-.86q6.62-.58,8.69-4.76C45.22,59.75,45.93,54.25,46,46l0-9.59q-.06-9.23-2.65-12.27t-8.93-2.89l-8.65.25Zm-.16,78.1,9.06-1.77c5.08-1,8.65-3.33,10.7-7s3.08-9.78,3.11-18.32q0-6.4,0-12.81,0-12.08-2.43-16.79c-1.65-3.15-4.83-4.48-9.56-4L25.63,86.84Z"/><path class="cls-1" d="M94,151.46q.47-74.84.94-149.67l25.8-.06q-.48,63.14-.94,126.27,16.26-2.48,32.53-4.74l-.15,18.1Q123,146,94,151.46Z"/><path class="cls-1" d="M230.08,122.66q-9,10.29-28.46,13c-13,1.77-22.49-.05-28.49-5.81s-8.93-15.4-8.81-28.83q.27-31.53.55-63.06Q165.21-.17,203.24,0c13.09,0,22.48,3.06,28.17,9s8.48,14.64,8.37,26.17q-.28,29.25-.56,58.51C239.1,106.19,236.06,115.78,230.08,122.66Zm-37.69-8c1.48,2.91,4.56,4.07,9.25,3.52s7.78-2.47,9.29-5.74,2.3-8.67,2.37-16.22q.28-30.53.58-61c.06-6.21-.65-10.71-2.13-13.54s-4.43-4.22-8.82-4.14-7.49,1.58-9.28,4.53-2.72,7.59-2.78,13.89q-.3,31.28-.58,62.56C190.21,106.32,190.91,111.73,192.39,114.64Z"/><path class="cls-1" d="M325.4,114.31q-8.86,8.94-27.72,10.58c-12.57,1.1-21.93-1-28.08-6.58s-9.18-14.23-9.07-25.9L261,37.68C261.21,19,267.93,7.19,281.2,2.6A54.34,54.34,0,0,1,298.94.07q35.7.07,35.48,31.71l-.12,16.4q-12.49.34-25,.75l.12-15.48c.06-6.24-.65-10.69-2.1-13.36s-4.34-4-8.64-3.93-7.3,1.52-9,4.43-2.57,7.35-2.63,13.32q-.25,28.74-.5,57.47-.09,9.93,2.29,14c1.58,2.72,4.5,3.9,8.75,3.57s7.19-2,8.83-4.93,2.48-7.71,2.53-14.28q.07-8.67.14-17.34,12.7-.62,25.4-1.13-.07,8.45-.13,16.87C334.31,99.66,331.31,108.34,325.4,114.31Z"/><path class="cls-1" d="M355.25,119.32q.39-58.95.77-117.91l25.8,0q-.13,26.84-.28,53.65,13.08-27.1,26.09-53.66H434.3q-14.13,28.32-28.35,57,15.1,29,30.3,57.78-13.72.27-27.43.71-13.6-26.52-27.13-53.37-.15,27.23-.29,54.44Q368.32,118.55,355.25,119.32Z"/><path class="cls-1" d="M522,30.89q0,18.57-14.82,22.67c12.11,2.82,18.19,12,18.24,27.29,0,1,0,2,0,2.94q-.15,17.33-8.89,24.78c-5.83,5-15.38,7.34-28.63,7.26q-18.86-.1-37.71.12l.18-114.58h36.68q19,0,26.88,6t8,20C522,28.54,522,29.72,522,30.89ZM476.18,47.66h9.56c4.44,0,7.35-.93,8.73-2.84s2.07-5.82,2.07-11.77q0-3.45,0-6.9c-.07-4.42-1-7.39-2.71-8.88s-4.73-2.25-9-2.26h-8.67Zm0,54.61,9.21,0q7.74,0,10.84-3.5T499.31,86c0-3.08,0-6.16,0-9.24q0-8.73-2.53-12.35t-9.67-3.66H476.18Z"/><path class="cls-1" d="M611,113.87c-5.9,4.79-15.42,6.72-28.56,6s-22.71-3.61-28.7-8.88-9-13.15-9.06-23.74q-.16-43-.34-86l25.8,0,.46,86.39c0,6.14.47,9.88,1.32,11.24A18.82,18.82,0,0,0,575,102.7c1.2,1.14,3.67,1.78,7.41,2s6.41-.46,8-1.89a9,9,0,0,0,2.91-5.51,57.44,57.44,0,0,0,.48-8.65q-.29-43.63-.56-87.27l25.8,0q.35,44.42.67,88.83Q619.85,106.68,611,113.87Z"/><path class="cls-1" d="M640.86,88.42l-.09-10.79Q653,78.25,665.29,79q.06,6.19.11,12.39.09,10.27,2.54,14.63t9.12,4.94c4.44.39,7.37-.5,8.8-2.7S688,102.3,687.92,97a25.94,25.94,0,0,0-4-14Q680,76.88,671.58,70.08,665.27,65,659,60.09a66.28,66.28,0,0,1-13.76-14.15,28.64,28.64,0,0,1-5-16.38c-.08-10,2.55-17.37,7.9-22.23S662.7,0,675.86,0,698,2.93,702.66,8.91s7.12,14.75,7.23,26.22L710,43q-11.9-.45-23.8-.87,0-4.47-.08-9-.09-9.1-2.24-13.08t-8.17-4.05q-6-.07-8.65,2.84c-1.75,1.94-2.6,4.86-2.57,8.77s1,7.06,2.78,9.45,5.09,5.47,9.82,9.32,9.38,7.77,14.08,11.73c7.06,6,12.4,12,16,18.1a38.39,38.39,0,0,1,5.53,19.56c.11,12-2.47,20.57-7.75,25.68s-14.61,6.87-28,5.54-22.7-5.2-28-11.67S641,100,640.86,88.42Z"/><path class="cls-1" d="M740.57,132.9q-.54-57-1.09-114l-19.83-.35q-.09-8.49-.17-17l64.6.1q.09,9.08.17,18.14l-19.06-.4,1.08,117Q753.43,134.57,740.57,132.9Z"/><path class="cls-1" d="M799.52,141.42q-.59-69.88-1.19-139.75l56.8.11q.06,9.81.13,19.62-15.5-.41-31-.79.16,20.94.32,41.88,14.7,1.08,29.39,2.26.07,9.59.13,19.16Q839.44,82.38,824.74,81q.18,22.9.35,45.8,16,2.4,32,5l.12,19.65Q828.44,146,799.52,141.42Z"/><path class="cls-1" d="M911.22,87,903,85.7l.27,75q-12.78-2.71-25.58-5.26-.39-76.78-.79-153.58l42.64.11C928.39,2,935,3.7,939.37,7.25s7.24,8.54,8.62,14.94,2.06,14.76,2.06,25.05-1.08,18-3.25,23.18-6.18,8.31-12,9.49Q943.46,82.36,946.9,93c2.3,7.11,3.45,21.57,3.45,43.27s.32,33.42.95,35.18q-12.72-3-25.47-5.88-1-2.07-1.08-58.8,0-10.87-2.7-14.77T911.22,87ZM903,67l10.25.91q4.89.45,7.23-1.47c1.57-1.27,2.65-3.62,3.25-7a98.73,98.73,0,0,0,.87-15.81v-1c0-8.85-.8-14.68-2.34-17.44s-5.1-4.22-10.68-4.37l-8.75-.24Q902.94,43.72,903,67Z"/><text class="cls-2" transform="translate(450.98 210)">2</text></g></g></svg>