<?xml version="1.0" encoding="utf-8"?>
<!-- Generator: Adobe Illustrator 24.1.0, SVG Export Plug-In . SVG Version: 6.00 Build 0)  -->
<svg version="1.1" id="Capa_1" xmlns="http://www.w3.org/2000/svg" xmlns:xlink="http://www.w3.org/1999/xlink" x="0px" y="0px"
	 viewBox="0 0 951.3 245.2" style="enable-background:new 0 0 951.3 245.2;" xml:space="preserve">
<style type="text/css">
	.st0{fill:#FFA903;}
	.st1{font-family:'Antonio-Bold';}
	.st2{font-size:98.59px;}
</style>
<g id="Capa_2_1_">
	<g id="Capa_1-2">
		<path class="st0" d="M71.3,41.4C71.2,58,66.3,68.6,56.4,73.4c12,2.7,18,14.1,17.8,34.5c0,1.3,0,2.6,0,3.9c-0.2,15.4-3.2,27-9,35
			S50,160.2,37,163.1c-12.4,2.7-24.7,5.5-37,8.4V2l36.7-0.1c12.6,0,21.6,2.7,26.8,8s7.8,14.2,7.8,26.8
			C71.3,38.3,71.3,39.8,71.3,41.4z M25.7,68.2l9.5-0.9c4.4-0.4,7.3-2,8.7-4.8c1.4-2.8,2.1-8.3,2.2-16.5v-9.6
			c0-6.2-0.9-10.2-2.7-12.3s-4.7-3-8.9-2.9l-8.6,0.2L25.7,68.2z M25.5,146.2l9.1-1.8c5.1-1,8.7-3.3,10.7-7s3.1-9.8,3.1-18.3
			c0-4.3,0-8.5,0-12.8c0-8.1-0.8-13.7-2.4-16.8c-1.7-3.2-4.8-4.5-9.6-4l-10.8,1.3L25.5,146.2z"/>
		<path class="st0" d="M94,151.5c0.3-49.9,0.6-99.8,0.9-149.7l25.8-0.1c-0.3,42.1-0.6,84.2-0.9,126.3c10.8-1.7,21.7-3.2,32.5-4.7
			l-0.1,18.1C132.7,144.5,113.3,147.8,94,151.5z"/>
		<path class="st0" d="M230.1,122.7c-6,6.9-15.5,11.2-28.5,13c-13,1.8-22.5-0.1-28.5-5.8s-8.9-15.4-8.8-28.8c0.2-21,0.4-42,0.6-63.1
			c0.2-25.4,13-38.1,38.4-37.9c13.1,0,22.5,3.1,28.2,9s8.5,14.6,8.4,26.2c-0.2,19.5-0.4,39-0.6,58.5
			C239.1,106.2,236.1,115.8,230.1,122.7z M192.4,114.7c1.5,2.9,4.6,4.1,9.2,3.5s7.8-2.5,9.3-5.7s2.3-8.7,2.4-16.2
			c0.2-20.4,0.4-40.7,0.6-61c0.1-6.2-0.7-10.7-2.1-13.5c-1.5-2.8-4.4-4.2-8.8-4.1s-7.5,1.6-9.3,4.5s-2.7,7.6-2.8,13.9
			c-0.2,20.9-0.4,41.7-0.6,62.6C190.2,106.3,190.9,111.7,192.4,114.7L192.4,114.7z"/>
		<path class="st0" d="M325.4,114.3c-5.9,6-15.1,9.5-27.7,10.6c-12.6,1.1-21.9-1-28.1-6.6s-9.2-14.2-9.1-25.9l0.5-54.7
			c0.2-18.7,6.9-30.5,20.2-35.1c5.7-1.8,11.7-2.7,17.7-2.5c23.8,0,35.6,10.6,35.5,31.7l-0.1,16.4c-8.3,0.2-16.7,0.5-25,0.8l0.1-15.5
			c0.1-6.2-0.6-10.7-2.1-13.4s-4.3-4-8.6-3.9s-7.3,1.5-9,4.4s-2.6,7.4-2.6,13.3c-0.2,19.2-0.3,38.3-0.5,57.5
			c-0.1,6.6,0.7,11.3,2.3,14c1.6,2.7,4.5,3.9,8.8,3.6s7.2-2,8.8-4.9s2.5-7.7,2.5-14.3l0.1-17.3c8.5-0.4,16.9-0.8,25.4-1.1l-0.1,16.9
			C334.3,99.7,331.3,108.3,325.4,114.3z"/>
		<path class="st0" d="M355.2,119.3c0.3-39.3,0.5-78.6,0.8-117.9h25.8c-0.1,17.9-0.2,35.8-0.3,53.7c8.7-18.1,17.4-36,26.1-53.7h26.7
			c-9.4,18.9-18.9,37.9-28.4,57c10.1,19.3,20.2,38.6,30.3,57.8c-9.1,0.2-18.3,0.4-27.4,0.7c-9.1-17.7-18.1-35.5-27.1-53.4
			c-0.1,18.2-0.2,36.3-0.3,54.4C372.7,118.4,364,118.8,355.2,119.3z"/>
		<path class="st0" d="M522,30.9c0,12.4-4.9,19.9-14.8,22.7c12.1,2.8,18.2,12,18.2,27.3c0,1,0,2,0,2.9c-0.1,11.6-3.1,19.8-8.9,24.8
			c-5.8,5-15.4,7.3-28.6,7.3c-12.6-0.1-25.1,0-37.7,0.1l0.2-114.6H487c12.7,0,21.6,2,26.9,6c5.3,4,7.9,10.7,8,20
			C522,28.5,522,29.7,522,30.9z M476.2,47.7h9.6c4.4,0,7.4-0.9,8.7-2.8s2.1-5.8,2.1-11.8c0-2.3,0-4.6,0-6.9c-0.1-4.4-1-7.4-2.7-8.9
			s-4.7-2.2-9-2.3h-8.7L476.2,47.7z M476.2,102.3h9.2c5.2,0,8.8-1.2,10.8-3.5c2.1-2.3,3.1-6.6,3.1-12.8c0-3.1,0-6.2,0-9.2
			c0-5.8-0.8-9.9-2.5-12.3c-1.7-2.4-4.9-3.6-9.7-3.7h-10.9V102.3z"/>
		<path class="st0" d="M611,113.9c-5.9,4.8-15.4,6.7-28.6,6s-22.7-3.6-28.7-8.9s-9-13.2-9-23.7c-0.1-28.7-0.2-57.3-0.3-86h25.8
			c0.2,28.8,0.3,57.6,0.5,86.4c0,6.1,0.5,9.9,1.3,11.2c0.8,1.4,1.9,2.7,3,3.8c1.2,1.1,3.7,1.8,7.4,2s6.4-0.5,8-1.9
			c1.6-1.4,2.6-3.4,2.9-5.5c0.4-2.9,0.5-5.8,0.5-8.7c-0.2-29.1-0.4-58.2-0.6-87.3H619c0.2,29.6,0.5,59.2,0.7,88.8
			C619.8,101.2,616.9,109.1,611,113.9z"/>
		<path class="st0" d="M640.9,88.4l-0.1-10.8c8.2,0.4,16.3,0.9,24.5,1.4c0,4.1,0.1,8.3,0.1,12.4c0.1,6.9,0.9,11.7,2.5,14.6
			s4.7,4.6,9.1,4.9s7.4-0.5,8.8-2.7s2.1-6,2.1-11.3c0-5-1.4-9.8-4-14c-2.6-4.1-6.7-8.4-12.4-12.9c-4.2-3.4-8.4-6.7-12.6-10
			c-5.3-4-9.9-8.8-13.8-14.1c-3.3-4.8-5-10.5-5-16.4c-0.1-10,2.5-17.4,7.9-22.2S662.7,0,675.9,0s22.1,2.9,26.8,8.9
			s7.1,14.8,7.2,26.2c0,2.6,0,5.3,0.1,7.9c-7.9-0.3-15.9-0.6-23.8-0.9c0-3,0-6-0.1-9c-0.1-6.1-0.8-10.4-2.2-13.1s-4.2-4-8.2-4.1
			c-4,0-6.9,0.9-8.6,2.8c-1.8,1.9-2.6,4.9-2.6,8.8s1,7.1,2.8,9.5s5.1,5.5,9.8,9.3s9.4,7.8,14.1,11.7c7,6,12.4,12,16,18.1
			c3.6,5.9,5.5,12.7,5.5,19.6c0.1,12-2.5,20.6-7.8,25.7s-14.6,6.9-28,5.5s-22.7-5.2-28-11.7S641,100,640.9,88.4z"/>
		<path class="st0" d="M740.6,132.9c-0.4-38-0.7-76-1.1-114l-19.8-0.4c-0.1-5.7-0.1-11.3-0.2-17l64.6,0.1c0,6.1,0.1,12.1,0.2,18.1
			l-19.1-0.4l1.1,117C757.7,135.2,749.1,134,740.6,132.9z"/>
		<path class="st0" d="M799.5,141.4L798.3,1.7l56.8,0.1c0,6.5,0.1,13.1,0.1,19.6c-10.3-0.3-20.7-0.5-31-0.8
			c0.1,14,0.2,27.9,0.3,41.9c9.8,0.7,19.6,1.5,29.4,2.3l0.1,19.2c-9.8-1-19.6-2-29.4-2.9c0.1,15.3,0.2,30.5,0.3,45.8
			c10.7,1.6,21.3,3.3,32,5c0,6.5,0.1,13.1,0.1,19.6C838,147.8,818.8,144.5,799.5,141.4z"/>
		<path class="st0" d="M911.2,87l-8.2-1.3l0.3,75c-8.5-1.8-17-3.6-25.6-5.3c-0.3-51.2-0.5-102.4-0.8-153.6L919.6,2
			c8.8,0,15.4,1.7,19.8,5.3s7.2,8.5,8.6,14.9s2.1,14.8,2.1,25s-1.1,18-3.2,23.2s-6.2,8.3-12,9.5c5.8,1.6,9.9,6,12.2,13.1
			s3.4,21.6,3.4,43.3s0.3,33.4,1,35.2c-8.5-2-17-4-25.5-5.9c-0.7-1.4-1-21-1.1-58.8c0-7.2-0.9-12.2-2.7-14.8S916.7,87.7,911.2,87z
			 M903,67l10.3,0.9c3.2,0.3,5.7-0.2,7.2-1.5s2.6-3.6,3.2-7c0.7-5.2,1-10.5,0.9-15.8v-1c0-8.9-0.8-14.7-2.3-17.4s-5.1-4.2-10.7-4.4
			l-8.8-0.2C902.9,36,903,51.5,903,67z"/>
		<text transform="matrix(1 0 0 1 450.98 210)" class="st0 st1 st2">2</text>
	</g>
</g>
</svg>
